<mxfile host="drawio-plugin" modified="2021-08-31T22:00:05.839Z" agent="5.0 (Macintosh; Intel Mac OS X 11_5_2) AppleWebKit/537.36 (KHTML, like Gecko) Chrome/89.0.4389.114 Safari/537.36" etag="jhPr0oBRC4xTkusrqUTd" version="14.7.4" type="embed"><diagram id="XK3sjVT5d-Bfbds4p5KX" name="Page-1"><mxGraphModel dx="833" dy="447" grid="1" gridSize="10" guides="1" tooltips="1" connect="1" arrows="1" fold="1" page="1" pageScale="1" pageWidth="1169" pageHeight="827" math="0" shadow="0"><root><mxCell id="0"/><mxCell id="1" parent="0"/><mxCell id="58" value="Coroutines" style="rounded=0;whiteSpace=wrap;html=1;fontSize=16;dashed=1;strokeColor=#666666;fillColor=#f5f5f5;verticalAlign=top;align=left;spacingLeft=8;fontColor=#808080;" parent="1" vertex="1"><mxGeometry x="10" y="60" width="670" height="180" as="geometry"/></mxCell><mxCell id="42" style="edgeStyle=orthogonalEdgeStyle;rounded=0;orthogonalLoop=1;jettySize=auto;html=1;entryX=0;entryY=0.5;entryDx=0;entryDy=0;fontSize=24;" parent="1" source="2" target="11" edge="1"><mxGeometry relative="1" as="geometry"/></mxCell><mxCell id="2" value="Events channel" style="shape=cylinder3;whiteSpace=wrap;html=1;boundedLbl=1;backgroundOutline=1;size=15;rotation=90;horizontal=0;" parent="1" vertex="1"><mxGeometry x="295" y="105" width="40" height="90" as="geometry"/></mxCell><mxCell id="51" style="edgeStyle=orthogonalEdgeStyle;rounded=0;orthogonalLoop=1;jettySize=auto;html=1;exitX=0.5;exitY=0;exitDx=0;exitDy=0;exitPerimeter=0;entryX=0;entryY=0.5;entryDx=0;entryDy=0;fontSize=24;" parent="1" source="3" target="49" edge="1"><mxGeometry relative="1" as="geometry"/></mxCell><mxCell id="3" value="Sink 1 channel" style="shape=cylinder3;whiteSpace=wrap;html=1;boundedLbl=1;backgroundOutline=1;size=15;rotation=90;horizontal=0;" parent="1" vertex="1"><mxGeometry x="510" y="45" width="40" height="90" as="geometry"/></mxCell><mxCell id="52" style="edgeStyle=orthogonalEdgeStyle;rounded=0;orthogonalLoop=1;jettySize=auto;html=1;exitX=0.5;exitY=0;exitDx=0;exitDy=0;exitPerimeter=0;entryX=0;entryY=0.5;entryDx=0;entryDy=0;fontSize=24;" parent="1" source="4" target="50" edge="1"><mxGeometry relative="1" as="geometry"/></mxCell><mxCell id="4" value="Sink &lt;i&gt;n&lt;/i&gt; channel" style="shape=cylinder3;whiteSpace=wrap;html=1;boundedLbl=1;backgroundOutline=1;size=15;rotation=90;horizontal=0;" parent="1" vertex="1"><mxGeometry x="510" y="165" width="40" height="90" as="geometry"/></mxCell><mxCell id="40" style="edgeStyle=orthogonalEdgeStyle;rounded=0;orthogonalLoop=1;jettySize=auto;html=1;entryX=0.5;entryY=1;entryDx=0;entryDy=0;entryPerimeter=0;fontSize=24;exitX=0.5;exitY=0;exitDx=0;exitDy=0;" parent="1" source="11" target="3" edge="1"><mxGeometry relative="1" as="geometry"/></mxCell><mxCell id="41" style="edgeStyle=orthogonalEdgeStyle;rounded=0;orthogonalLoop=1;jettySize=auto;html=1;entryX=0.5;entryY=1;entryDx=0;entryDy=0;entryPerimeter=0;fontSize=24;exitX=0.5;exitY=1;exitDx=0;exitDy=0;" parent="1" source="11" target="4" edge="1"><mxGeometry relative="1" as="geometry"/></mxCell><mxCell id="11" value="" style="rhombus;whiteSpace=wrap;html=1;" parent="1" vertex="1"><mxGeometry x="390" y="110" width="80" height="80" as="geometry"/></mxCell><mxCell id="29" value="" style="group" parent="1" vertex="1" connectable="0"><mxGeometry x="20" y="110" width="100" height="80" as="geometry"/></mxCell><mxCell id="18" value="Klogger" style="rounded=1;whiteSpace=wrap;html=1;" parent="29" vertex="1"><mxGeometry y="40" width="80" height="40" as="geometry"/></mxCell><mxCell id="14" value="Klogger" style="rounded=1;whiteSpace=wrap;html=1;" parent="29" vertex="1"><mxGeometry x="10" y="30" width="80" height="40" as="geometry"/></mxCell><mxCell id="15" value="Klogger" style="rounded=1;whiteSpace=wrap;html=1;" parent="29" vertex="1"><mxGeometry x="20" y="20" width="80" height="40" as="geometry"/></mxCell><mxCell id="13" value="Klogger" style="rounded=1;whiteSpace=wrap;html=1;" parent="29" vertex="1"><mxGeometry x="10" y="10" width="80" height="40" as="geometry"/></mxCell><mxCell id="12" value="Klogger" style="rounded=1;whiteSpace=wrap;html=1;" parent="29" vertex="1"><mxGeometry width="80" height="40" as="geometry"/></mxCell><mxCell id="30" value="" style="group" parent="1" vertex="1" connectable="0"><mxGeometry x="140" y="120" width="90" height="60" as="geometry"/></mxCell><mxCell id="25" value="" style="rounded=0;whiteSpace=wrap;html=1;" parent="30" vertex="1"><mxGeometry y="40" width="70" height="20" as="geometry"/></mxCell><mxCell id="26" value="" style="rounded=0;whiteSpace=wrap;html=1;" parent="30" vertex="1"><mxGeometry x="5" y="35" width="70" height="20" as="geometry"/></mxCell><mxCell id="27" value="" style="rounded=0;whiteSpace=wrap;html=1;" parent="30" vertex="1"><mxGeometry x="10" y="30" width="70" height="20" as="geometry"/></mxCell><mxCell id="28" value="" style="rounded=0;whiteSpace=wrap;html=1;" parent="30" vertex="1"><mxGeometry x="15" y="25" width="70" height="20" as="geometry"/></mxCell><mxCell id="22" value="" style="rounded=0;whiteSpace=wrap;html=1;" parent="30" vertex="1"><mxGeometry x="20" y="20" width="70" height="20" as="geometry"/></mxCell><mxCell id="23" value="" style="rounded=0;whiteSpace=wrap;html=1;" parent="30" vertex="1"><mxGeometry x="15" y="15" width="70" height="20" as="geometry"/></mxCell><mxCell id="21" value="" style="rounded=0;whiteSpace=wrap;html=1;" parent="30" vertex="1"><mxGeometry x="10" y="10" width="70" height="20" as="geometry"/></mxCell><mxCell id="20" value="" style="rounded=0;whiteSpace=wrap;html=1;" parent="30" vertex="1"><mxGeometry x="5" y="5" width="70" height="20" as="geometry"/></mxCell><mxCell id="9" value="Log event" style="rounded=0;whiteSpace=wrap;html=1;" parent="30" vertex="1"><mxGeometry width="70" height="20" as="geometry"/></mxCell><mxCell id="32" value="…" style="text;html=1;align=center;verticalAlign=middle;resizable=0;points=[];autosize=1;strokeColor=none;horizontal=0;fontSize=24;" parent="1" vertex="1"><mxGeometry x="500" y="135" width="40" height="30" as="geometry"/></mxCell><mxCell id="39" value="" style="group" parent="1" vertex="1" connectable="0"><mxGeometry x="25" y="260" width="90" height="50" as="geometry"/></mxCell><mxCell id="37" value="Klogger" style="rounded=1;whiteSpace=wrap;html=1;" parent="39" vertex="1"><mxGeometry x="10" y="10" width="80" height="40" as="geometry"/></mxCell><mxCell id="38" value="NoCoLogger" style="rounded=1;whiteSpace=wrap;html=1;" parent="39" vertex="1"><mxGeometry width="80" height="40" as="geometry"/></mxCell><mxCell id="43" style="edgeStyle=orthogonalEdgeStyle;rounded=0;orthogonalLoop=1;jettySize=auto;html=1;exitX=1;exitY=0.5;exitDx=0;exitDy=0;entryX=0.5;entryY=1;entryDx=0;entryDy=0;entryPerimeter=0;fontSize=24;" parent="1" source="22" target="2" edge="1"><mxGeometry relative="1" as="geometry"/></mxCell><mxCell id="44" style="rounded=0;orthogonalLoop=1;jettySize=auto;html=1;fontSize=24;entryX=0;entryY=1;entryDx=0;entryDy=0;" parent="1" source="37" target="68" edge="1"><mxGeometry relative="1" as="geometry"><mxPoint x="220" y="330" as="targetPoint"/></mxGeometry></mxCell><mxCell id="45" style="edgeStyle=orthogonalEdgeStyle;rounded=0;orthogonalLoop=1;jettySize=auto;html=1;exitX=1;exitY=0.5;exitDx=0;exitDy=0;entryX=0;entryY=1;entryDx=0;entryDy=0;fontSize=24;" parent="1" source="15" target="21" edge="1"><mxGeometry relative="1" as="geometry"/></mxCell><mxCell id="72" style="edgeStyle=orthogonalEdgeStyle;rounded=0;orthogonalLoop=1;jettySize=auto;html=1;" edge="1" parent="1" source="49"><mxGeometry relative="1" as="geometry"><mxPoint x="710" y="90" as="targetPoint"/></mxGeometry></mxCell><mxCell id="49" value="Sink 1" style="rounded=1;whiteSpace=wrap;html=1;" parent="1" vertex="1"><mxGeometry x="600" y="70" width="60" height="40" as="geometry"/></mxCell><mxCell id="73" style="edgeStyle=orthogonalEdgeStyle;rounded=0;orthogonalLoop=1;jettySize=auto;html=1;exitX=1;exitY=0.5;exitDx=0;exitDy=0;" edge="1" parent="1" source="50"><mxGeometry relative="1" as="geometry"><mxPoint x="710" y="210" as="targetPoint"/></mxGeometry></mxCell><mxCell id="50" value="Sink &lt;i&gt;n&lt;/i&gt;" style="rounded=1;whiteSpace=wrap;html=1;" parent="1" vertex="1"><mxGeometry x="600" y="190" width="60" height="40" as="geometry"/></mxCell><mxCell id="53" value="Emit" style="text;html=1;align=center;verticalAlign=middle;resizable=0;points=[];autosize=1;fontSize=16;fillColor=#f5f5f5;strokeColor=#666666;fontColor=#333333;" parent="1" vertex="1"><mxGeometry x="200" y="20" width="50" height="20" as="geometry"/></mxCell><mxCell id="54" value="Filter &amp;amp;&lt;br style=&quot;font-size: 16px;&quot;&gt;Dispatch" style="text;html=1;align=center;verticalAlign=middle;resizable=0;points=[];autosize=1;strokeColor=#666666;fontSize=16;fillColor=#f5f5f5;fontColor=#333333;" parent="1" vertex="1"><mxGeometry x="390" y="10" width="80" height="40" as="geometry"/></mxCell><mxCell id="55" value="Send" style="text;html=1;align=center;verticalAlign=middle;resizable=0;points=[];autosize=1;strokeColor=#666666;fontSize=16;fillColor=#f5f5f5;fontColor=#333333;" parent="1" vertex="1"><mxGeometry x="600" y="20" width="50" height="20" as="geometry"/></mxCell><mxCell id="70" value="" style="group" parent="1" vertex="1" connectable="0"><mxGeometry x="140" y="270" width="90" height="40" as="geometry"/></mxCell><mxCell id="64" value="" style="rounded=0;whiteSpace=wrap;html=1;" parent="70" vertex="1"><mxGeometry x="20" y="20" width="70" height="20" as="geometry"/></mxCell><mxCell id="65" value="" style="rounded=0;whiteSpace=wrap;html=1;" parent="70" vertex="1"><mxGeometry x="15" y="15" width="70" height="20" as="geometry"/></mxCell><mxCell id="66" value="" style="rounded=0;whiteSpace=wrap;html=1;" parent="70" vertex="1"><mxGeometry x="10" y="10" width="70" height="20" as="geometry"/></mxCell><mxCell id="67" value="" style="rounded=0;whiteSpace=wrap;html=1;" parent="70" vertex="1"><mxGeometry x="5" y="5" width="70" height="20" as="geometry"/></mxCell><mxCell id="68" value="Log event" style="rounded=0;whiteSpace=wrap;html=1;" parent="70" vertex="1"><mxGeometry width="70" height="20" as="geometry"/></mxCell><mxCell id="71" style="edgeStyle=orthogonalEdgeStyle;rounded=0;orthogonalLoop=1;jettySize=auto;html=1;fontSize=16;fontColor=#808080;entryX=0.5;entryY=1;entryDx=0;entryDy=0;entryPerimeter=0;exitX=1;exitY=0.25;exitDx=0;exitDy=0;" parent="1" source="66" target="2" edge="1"><mxGeometry relative="1" as="geometry"><mxPoint x="340" y="290" as="targetPoint"/><Array as="points"><mxPoint x="250" y="285"/><mxPoint x="250" y="150"/></Array></mxGeometry></mxCell></root></mxGraphModel></diagram></mxfile>